<?xml version="1.0" encoding="utf-8"?>
<!-- Generator: Adobe Illustrator 19.1.0, SVG Export Plug-In . SVG Version: 6.00 Build 0)  -->
<svg version="1.1" id="Layer_1" xmlns="http://www.w3.org/2000/svg" xmlns:xlink="http://www.w3.org/1999/xlink" x="0px" y="0px"
	 viewBox="0 0 1400 980" enable-background="new 0 0 1400 980" xml:space="preserve">
<rect fill="#004F4C" width="1400" height="980"/>
<rect y="581" fill="#013834" width="1400" height="273"/>
<g>
	<path fill="#171B1A" d="M554.8,124.5H452.4c-4.6,0-8.1-4.5-7-9.3l21.2-93.4c0.8-3.4,3.7-5.8,7-5.8h60.1c3.3,0,6.2,2.4,7,5.8
		l21.2,93.4C562.8,119.9,559.4,124.5,554.8,124.5z"/>
	<path fill="#00AEEF" d="M554.8,119.5H452.4c-4.6,0-8.1-4.3-7-8.8l21.2-89.1c0.8-3.2,3.7-5.5,7-5.5h60.1c3.3,0,6.2,2.3,7,5.5
		l21.2,89.1C562.8,115.1,559.4,119.5,554.8,119.5z"/>
	<path fill="#171B1A" d="M544.9,226.5h-82.7c-4.1,0-7.5-3.3-7.5-7.5v-97h97.6v97C552.4,223.2,549,226.5,544.9,226.5z"/>
	<rect x="472" y="218.7" fill="#E29432" width="63.2" height="7.8"/>
	<polygon fill="#B26C2D" points="531.5,210 475.6,210 472,218.7 535.2,218.7 	"/>
	<rect x="475.6" y="132.8" fill="#E29432" width="55.9" height="77.2"/>
	<g>
		<circle fill="#FDEB9F" cx="486.5" cy="149.1" r="3.6"/>
		<circle fill="#FDEB9F" cx="486.5" cy="161.1" r="3.6"/>
		<circle fill="#FDEB9F" cx="486.5" cy="173.1" r="3.6"/>
		<circle fill="#FDEB9F" cx="486.5" cy="185.1" r="3.6"/>
		<circle fill="#FDEB9F" cx="486.5" cy="197.1" r="3.6"/>
		<circle fill="#FDEB9F" cx="496.2" cy="149.1" r="3.6"/>
		<circle fill="#FDEB9F" cx="496.2" cy="161.1" r="3.6"/>
		<circle fill="#FDEB9F" cx="496.2" cy="173.1" r="3.6"/>
		<circle fill="#FDEB9F" cx="496.2" cy="185.1" r="3.6"/>
		<circle fill="#FDEB9F" cx="496.2" cy="197.1" r="3.6"/>
	</g>
	<g>
		<circle fill="#FDEB9F" cx="510.9" cy="149.1" r="3.6"/>
		<circle fill="#FDEB9F" cx="510.9" cy="161.1" r="3.6"/>
		<circle fill="#FDEB9F" cx="510.9" cy="173.1" r="3.6"/>
		<circle fill="#FDEB9F" cx="510.9" cy="185.1" r="3.6"/>
		<circle fill="#FDEB9F" cx="510.9" cy="197.1" r="3.6"/>
		<circle fill="#FDEB9F" cx="520.6" cy="149.1" r="3.6"/>
		<circle fill="#FDEB9F" cx="520.6" cy="161.1" r="3.6"/>
		<circle fill="#FDEB9F" cx="520.6" cy="173.1" r="3.6"/>
		<circle fill="#FDEB9F" cx="520.6" cy="185.1" r="3.6"/>
		<circle fill="#FDEB9F" cx="520.6" cy="197.1" r="3.6"/>
	</g>
	<rect x="477" y="99.5" fill="#0483AA" width="53.2" height="10"/>
	<rect x="475.4" y="20" fill="#0483AA" width="18.3" height="6.9"/>
	<rect x="513.5" y="20" fill="#0483AA" width="18.3" height="6.9"/>
	<path fill="#171B1A" d="M685.7,124.5H583.3c-4.6,0-8.1-4.5-7-9.3l21.2-93.4c0.8-3.4,3.7-5.8,7-5.8h60.1c3.3,0,6.2,2.4,7,5.8
		l21.2,93.4C693.8,119.9,690.4,124.5,685.7,124.5z"/>
	<path fill="#EC008C" d="M685.7,119.5H583.3c-4.6,0-8.1-4.3-7-8.8l21.2-89.1c0.8-3.2,3.7-5.5,7-5.5h60.1c3.3,0,6.2,2.3,7,5.5
		l21.2,89.1C693.8,115.1,690.4,119.5,685.7,119.5z"/>
	<path fill="#171B1A" d="M675.9,226.5h-82.7c-4.1,0-7.5-3.3-7.5-7.5v-97h97.6v97C683.3,223.2,680,226.5,675.9,226.5z"/>
	<rect x="602.9" y="218.7" fill="#E29432" width="63.2" height="7.8"/>
	<polygon fill="#B26C2D" points="662.5,210 606.6,210 602.9,218.7 666.1,218.7 	"/>
	<rect x="606.6" y="132.8" fill="#E29432" width="55.9" height="77.2"/>
	<g>
		<circle fill="#FDEB9F" cx="617.5" cy="149.1" r="3.6"/>
		<circle fill="#FDEB9F" cx="617.5" cy="161.1" r="3.6"/>
		<circle fill="#FDEB9F" cx="617.5" cy="173.1" r="3.6"/>
		<circle fill="#FDEB9F" cx="617.5" cy="185.1" r="3.6"/>
		<circle fill="#FDEB9F" cx="617.5" cy="197.1" r="3.6"/>
		<circle fill="#FDEB9F" cx="627.2" cy="149.1" r="3.6"/>
		<circle fill="#FDEB9F" cx="627.2" cy="161.1" r="3.6"/>
		<circle fill="#FDEB9F" cx="627.2" cy="173.1" r="3.6"/>
		<circle fill="#FDEB9F" cx="627.2" cy="185.1" r="3.6"/>
		<circle fill="#FDEB9F" cx="627.2" cy="197.1" r="3.6"/>
	</g>
	<g>
		<circle fill="#FDEB9F" cx="641.8" cy="149.1" r="3.6"/>
		<circle fill="#FDEB9F" cx="641.8" cy="161.1" r="3.6"/>
		<circle fill="#FDEB9F" cx="641.8" cy="173.1" r="3.6"/>
		<circle fill="#FDEB9F" cx="641.8" cy="185.1" r="3.6"/>
		<circle fill="#FDEB9F" cx="641.8" cy="197.1" r="3.6"/>
		<circle fill="#FDEB9F" cx="651.6" cy="149.1" r="3.6"/>
		<circle fill="#FDEB9F" cx="651.6" cy="161.1" r="3.6"/>
		<circle fill="#FDEB9F" cx="651.6" cy="173.1" r="3.6"/>
		<circle fill="#FDEB9F" cx="651.6" cy="185.1" r="3.6"/>
		<circle fill="#FDEB9F" cx="651.6" cy="197.1" r="3.6"/>
	</g>
	<rect x="607.9" y="99.5" fill="#B20273" width="53.2" height="10"/>
	<rect x="606.3" y="20" fill="#B20273" width="18.3" height="6.9"/>
	<rect x="644.5" y="20" fill="#B20273" width="18.3" height="6.9"/>
	<path fill="#171B1A" d="M816.7,124.5H714.3c-4.6,0-8.1-4.5-7-9.3l21.2-93.4c0.8-3.4,3.7-5.8,7-5.8h60.1c3.3,0,6.2,2.4,7,5.8
		l21.2,93.4C824.7,119.9,821.3,124.5,816.7,124.5z"/>
	<path fill="#FFF200" d="M816.7,119.5H714.3c-4.6,0-8.1-4.3-7-8.8l21.2-89.1c0.8-3.2,3.7-5.5,7-5.5h60.1c3.3,0,6.2,2.3,7,5.5
		l21.2,89.1C824.7,115.1,821.3,119.5,816.7,119.5z"/>
	<path fill="#171B1A" d="M806.9,226.5h-82.7c-4.1,0-7.5-3.3-7.5-7.5v-97h97.6v97C814.3,223.2,811,226.5,806.9,226.5z"/>
	<rect x="733.9" y="218.7" fill="#E29432" width="63.2" height="7.8"/>
	<polygon fill="#B26C2D" points="793.4,210 737.5,210 733.9,218.7 797.1,218.7 	"/>
	<rect x="737.5" y="132.8" fill="#E29432" width="55.9" height="77.2"/>
	<g>
		<circle fill="#FDEB9F" cx="748.4" cy="149.1" r="3.6"/>
		<circle fill="#FDEB9F" cx="748.4" cy="161.1" r="3.6"/>
		<circle fill="#FDEB9F" cx="748.4" cy="173.1" r="3.6"/>
		<circle fill="#FDEB9F" cx="748.4" cy="185.1" r="3.6"/>
		<circle fill="#FDEB9F" cx="748.4" cy="197.1" r="3.6"/>
		<circle fill="#FDEB9F" cx="758.2" cy="149.1" r="3.6"/>
		<circle fill="#FDEB9F" cx="758.2" cy="161.1" r="3.6"/>
		<circle fill="#FDEB9F" cx="758.2" cy="173.1" r="3.6"/>
		<circle fill="#FDEB9F" cx="758.2" cy="185.1" r="3.6"/>
		<circle fill="#FDEB9F" cx="758.2" cy="197.1" r="3.6"/>
	</g>
	<g>
		<circle fill="#FDEB9F" cx="772.8" cy="149.1" r="3.6"/>
		<circle fill="#FDEB9F" cx="772.8" cy="161.1" r="3.6"/>
		<circle fill="#FDEB9F" cx="772.8" cy="173.1" r="3.6"/>
		<circle fill="#FDEB9F" cx="772.8" cy="185.1" r="3.6"/>
		<circle fill="#FDEB9F" cx="772.8" cy="197.1" r="3.6"/>
		<circle fill="#FDEB9F" cx="782.5" cy="149.1" r="3.6"/>
		<circle fill="#FDEB9F" cx="782.5" cy="161.1" r="3.6"/>
		<circle fill="#FDEB9F" cx="782.5" cy="173.1" r="3.6"/>
		<circle fill="#FDEB9F" cx="782.5" cy="185.1" r="3.6"/>
		<circle fill="#FDEB9F" cx="782.5" cy="197.1" r="3.6"/>
	</g>
	<rect x="738.9" y="99.5" fill="#B7A904" width="53.2" height="10"/>
	<rect x="737.3" y="20" fill="#B7A904" width="18.3" height="6.9"/>
	<rect x="775.4" y="20" fill="#B7A904" width="18.3" height="6.9"/>
	<path fill="#171B1A" d="M947.6,124.5H845.2c-4.6,0-8.1-4.5-7-9.3l21.2-93.4c0.8-3.4,3.7-5.8,7-5.8h60.1c3.3,0,6.2,2.4,7,5.8
		l21.2,93.4C955.7,119.9,952.3,124.5,947.6,124.5z"/>
	<path fill="#171B1A" d="M947.6,119.5H845.2c-4.6,0-8.1-4.3-7-8.8l21.2-89.1c0.8-3.2,3.7-5.5,7-5.5h60.1c3.3,0,6.2,2.3,7,5.5
		l21.2,89.1C955.7,115.1,952.3,119.5,947.6,119.5z"/>
	<path fill="#171B1A" d="M937.8,226.5h-82.7c-4.1,0-7.5-3.3-7.5-7.5v-97h97.6v97C945.3,223.2,941.9,226.5,937.8,226.5z"/>
	<rect x="864.8" y="218.7" fill="#E29432" width="63.2" height="7.8"/>
	<polygon fill="#B26C2D" points="924.4,210 868.5,210 864.8,218.7 928,218.7 	"/>
	<rect x="868.5" y="132.8" fill="#E29432" width="55.9" height="77.2"/>
	<g>
		<circle fill="#FDEB9F" cx="879.4" cy="149.1" r="3.6"/>
		<circle fill="#FDEB9F" cx="879.4" cy="161.1" r="3.6"/>
		<circle fill="#FDEB9F" cx="879.4" cy="173.1" r="3.6"/>
		<circle fill="#FDEB9F" cx="879.4" cy="185.1" r="3.6"/>
		<circle fill="#FDEB9F" cx="879.4" cy="197.1" r="3.6"/>
		<circle fill="#FDEB9F" cx="889.1" cy="149.1" r="3.6"/>
		<circle fill="#FDEB9F" cx="889.1" cy="161.1" r="3.6"/>
		<circle fill="#FDEB9F" cx="889.1" cy="173.1" r="3.6"/>
		<circle fill="#FDEB9F" cx="889.1" cy="185.1" r="3.6"/>
		<circle fill="#FDEB9F" cx="889.1" cy="197.1" r="3.6"/>
	</g>
	<g>
		<circle fill="#FDEB9F" cx="903.8" cy="149.1" r="3.6"/>
		<circle fill="#FDEB9F" cx="903.8" cy="161.1" r="3.6"/>
		<circle fill="#FDEB9F" cx="903.8" cy="173.1" r="3.6"/>
		<circle fill="#FDEB9F" cx="903.8" cy="185.1" r="3.6"/>
		<circle fill="#FDEB9F" cx="903.8" cy="197.1" r="3.6"/>
		<circle fill="#FDEB9F" cx="913.5" cy="149.1" r="3.6"/>
		<circle fill="#FDEB9F" cx="913.5" cy="161.1" r="3.6"/>
		<circle fill="#FDEB9F" cx="913.5" cy="173.1" r="3.6"/>
		<circle fill="#FDEB9F" cx="913.5" cy="185.1" r="3.6"/>
		<circle fill="#FDEB9F" cx="913.5" cy="197.1" r="3.6"/>
	</g>
	<rect x="869.8" y="99.5" fill="#414042" width="53.2" height="10"/>
	<rect x="868.2" y="20" fill="#414042" width="18.3" height="6.9"/>
	<rect x="906.4" y="20" fill="#414042" width="18.3" height="6.9"/>
</g>
<polygon fill="#00AEEF" points="472.6,226.5 472.6,581 472,581 0,854 0,980 204.2,980 204.2,854 535.2,581 535.8,581 535.8,226.5 
	"/>
<polygon fill="#171B1A" points="928,581 928,226.5 864.8,226.5 864.8,581 1195.8,854 1195.8,980 1400,980 1400,854 "/>
<polygon fill="#FFF200" points="797.7,581 797.1,581 797.1,226.5 733.9,226.5 733.9,581 734.5,581 814.9,854 814.9,980 1101.6,980 
	1101.6,854 "/>
<polygon fill="#EC008C" points="602.9,226.5 602.9,581 299,854 301.8,854 301.8,980 585.7,980 585.7,854 666.1,581 666.1,226.5 "/>
<polygon fill="#013834" points="204.2,854 233,980 204.2,980 "/>
<polygon fill="#013834" points="588.5,854 617.3,980 588.5,980 "/>
<polygon fill="#013834" points="811.5,854 782.7,980 811.5,980 "/>
<polygon fill="#013834" points="1195.8,854 1167,980 1195.8,980 "/>
<circle fill="#FFF200" cx="1119" cy="127" r="88"/>
<circle fill="#EC008C" cx="1119" cy="127" r="70.1"/>
<circle fill="#00AEEF" cx="1119" cy="127" r="49"/>
<circle fill="#171B1A" cx="1119" cy="127" r="22.1"/>
<circle fill="#00AEEF" cx="192.8" cy="380.1" r="115"/>
<circle fill="#171B1A" cx="192.8" cy="380.1" r="91.6"/>
<circle fill="#EC008C" cx="192.8" cy="380.1" r="64"/>
<circle fill="#FFF200" cx="192.8" cy="380.1" r="28.8"/>
<circle fill="#EC008C" cx="314.9" cy="244.2" r="59.6"/>
<circle fill="#FFF200" cx="314.9" cy="244.2" r="47.4"/>
<circle fill="#00AEEF" cx="314.9" cy="244.2" r="33.1"/>
<circle fill="#171B1A" cx="314.9" cy="244.2" r="14.9"/>
<circle fill="#EC008C" cx="1249.5" cy="513.8" r="87.4"/>
<circle fill="#171B1A" cx="1249.5" cy="513.8" r="69.6"/>
<circle fill="#00AEEF" cx="1249.5" cy="513.8" r="48.6"/>
<circle fill="#FFF200" cx="1249.5" cy="513.8" r="21.9"/>
<path fill="#FFF200" d="M1119,269.4L1119,269.4c-6.6,0-12-5.4-12-12v-44.6c0-6.6,5.4-12,12-12l0,0c6.6,0,12,5.4,12,12v44.6
	C1131,264,1125.6,269.4,1119,269.4z"/>
<path fill="#FFF200" d="M1149.5,237.6L1149.5,237.6c-6.6,0-12-5.4-12-12v-21.4c0-6.6,5.4-12,12-12l0,0c6.6,0,12,5.4,12,12v21.4
	C1161.5,232.2,1156.1,237.6,1149.5,237.6z"/>
<path fill="#00AEEF" d="M175,547.6L175,547.6c-6.1,0-11-5-11-11v-45.5c0-6.1,5-11,11-11h0c6.1,0,11,5,11,11v45.5
	C186,542.6,181,547.6,175,547.6z"/>
<path fill="#00AEEF" d="M203.8,521.9L203.8,521.9c-6.1,0-11-5-11-11v-22.8c0-6.1,5-11,11-11h0c6.1,0,11,5,11,11v22.8
	C214.8,516.9,209.9,521.9,203.8,521.9z"/>
<path fill="#00AEEF" d="M203.8,550.5L203.8,550.5c-6.1,0-11-5-11-11v-0.4c0-6.1,5-11,11-11h0c6.1,0,11,5,11,11v0.4
	C214.8,545.5,209.9,550.5,203.8,550.5z"/>
<path fill="#EC008C" d="M327,399.6L327,399.6c-4,0-7.3-3.3-7.3-7.3v-93.3c0-4,3.3-7.3,7.3-7.3l0,0c4,0,7.3,3.3,7.3,7.3v93.3
	C334.3,396.3,331,399.6,327,399.6z"/>
<path fill="#EC008C" d="M346.5,334.1L346.5,334.1c-3.3,0-6-2.7-6-6v-37.6c0-3.3,2.7-6,6-6l0,0c3.3,0,6,2.7,6,6v37.6
	C352.5,331.4,349.8,334.1,346.5,334.1z"/>
<path fill="#EC008C" d="M346.5,377.4L346.5,377.4c-3.3,0-6-2.7-6-6V346c0-3.3,2.7-6,6-6l0,0c3.3,0,6,2.7,6,6v25.4
	C352.5,374.7,349.8,377.4,346.5,377.4z"/>
</svg>
